<?xml version="1.0" encoding="utf-8"?>
<!-- Generator: Adobe Illustrator 27.0.1, SVG Export Plug-In . SVG Version: 6.00 Build 0)  -->
<svg version="1.1" id="Layer_3" xmlns="http://www.w3.org/2000/svg" xmlns:xlink="http://www.w3.org/1999/xlink" x="0px" y="0px"
	 viewBox="0 0 612 792" style="enable-background:new 0 0 612 792;" xml:space="preserve">
<style type="text/css">
	.st0{fill:none;stroke:#0E0E0E;stroke-width:12;stroke-miterlimit:10;}
	.st1{fill:none;stroke:#000000;stroke-width:12;stroke-miterlimit:10;}
	.st2{fill:none;stroke:#0E0E0E;stroke-width:12;stroke-linecap:round;stroke-miterlimit:10;}
	.st3{fill:none;stroke:#ECEAE6;stroke-width:12;stroke-miterlimit:10;}
	.st4{fill:none;stroke:#ECEAE6;stroke-width:12;stroke-linecap:round;stroke-miterlimit:10;}
	.st5{fill:#ECEAE6;stroke:#ECEAE6;stroke-width:0.5;stroke-miterlimit:10;}
	.st6{font-family:'MADEAvenuePERSONALUSE-Regular';}
	.st7{font-size:328.1096px;}
</style>
<path class="st0" d="M-1758.57,213.85c9.52-17.95,28.25-31.58,61.27-14.39"/>
<path class="st1" d="M-1762,292.23c0,0,12.67-51.94,34.63-75.57s59.86-23.49,59.86-23.49s0.94,56.58-0.75,66.46
	c-1.69,9.88-9.29,35.24-32.09,42.11c-7.74,2.33-15.34,3.43-22.42,3.59c-13.78,0.31-25.64-2.92-32.89-7.46
	c-10.98-6.88-17.35-25.14-17.35-25.14s-3.77-8.38-5.03-66.39c0,0,26.13,8.03,39.22,20.07"/>
<path class="st2" d="M-1721.8,428.21c0,0,0-25.24,0-105.28"/>
<path class="st2" d="M-1705.61,376.37l12.81-19.69c5.6-6.74,13.54-11.12,22.22-12.28l22.59-3l-4.09,8.59
	c-6.15,12.89-18.4,21.79-32.56,23.64L-1705.61,376.37"/>
<text transform="matrix(1 0 0 1 -1589.9998 358.8812)"><tspan x="0" y="0" class="st6" style="stroke:#0E0E0E;stroke-width:0.5;stroke-miterlimit:10; font-size:200px;">C</tspan><tspan x="126.2" y="0" class="st6" style="fill:#0E0E0E;stroke:#0E0E0E;stroke-width:0.5;stroke-miterlimit:10; font-size:200px;">R</tspan></text>
<path class="st3" d="M-1013.57,213.85c9.52-17.95,28.25-31.58,61.27-14.39"/>
<path class="st3" d="M-1017,292.23c0,0,12.67-51.94,34.63-75.57c21.96-23.64,59.86-23.49,59.86-23.49s0.94,56.58-0.75,66.46
	c-1.69,9.88-9.29,35.24-32.09,42.11c-7.74,2.33-15.34,3.43-22.42,3.59c-13.78,0.31-25.64-2.92-32.89-7.46
	c-10.98-6.88-17.35-25.14-17.35-25.14s-3.77-8.38-5.03-66.39c0,0,26.13,8.03,39.22,20.07"/>
<path class="st4" d="M-976.8,428.21c0,0,0-25.24,0-105.28"/>
<path class="st4" d="M-960.61,376.37l12.81-19.69c5.6-6.74,13.54-11.12,22.22-12.28l22.59-3l-4.09,8.59
	c-6.15,12.89-18.4,21.79-32.56,23.64L-960.61,376.37"/>
<text transform="matrix(1 0 0 1 -1034.0509 525.415)" class="st6" style="fill:#ECEAE6; font-size:92.7977px;">CR</text>
<text transform="matrix(1 0 0 1 -1795.1511 664.2926)"><tspan x="0" y="0" class="st6" style="stroke:#0E0E0E;stroke-width:0.5;stroke-miterlimit:10; font-size:200px;">C</tspan><tspan x="126.2" y="0" class="st6" style="fill:#0E0E0E;stroke:#0E0E0E;stroke-width:0.5;stroke-miterlimit:10; font-size:200px;">R</tspan></text>
<path class="st0" d="M-1503.1,564.17c9.52-17.95,28.25-31.58,61.27-14.39"/>
<path class="st1" d="M-1506.53,642.55c0,0,12.67-51.94,34.63-75.57s59.86-23.49,59.86-23.49s0.94,56.58-0.75,66.46
	c-1.69,9.88-9.29,35.24-32.09,42.11c-7.74,2.33-15.34,3.43-22.42,3.59c-13.78,0.31-25.64-2.92-32.89-7.46
	c-10.98-6.88-17.35-25.14-17.35-25.14s-3.77-8.38-5.03-66.39c0,0,26.13,8.03,39.22,20.07"/>
<text transform="matrix(1 0 0 1 -587.8057 515.9082)"><tspan x="0" y="0" class="st6" style="stroke:#0E0E0E;stroke-width:0.5;stroke-miterlimit:10; font-size:326.6287px;">C</tspan><tspan x="206.1" y="0" class="st6" style="fill:#0E0E0E;stroke:#0E0E0E;stroke-width:0.5;stroke-miterlimit:10; font-size:326.6287px;">R</tspan></text>
<g>
	<path class="st0" d="M-131.73,445.55c15.93-24.98,45.88-5.07,43.78-6.27"/>
	<path class="st1" d="M-134.09,499.27c0,0,7.73-27.91,23.35-43.56c17.24-17.28,40.19-20.17,39.5-19.83c0,0,0.69,38.22-0.46,44.99
		c-1.16,6.77-4.51,20.21-20.14,24.92c-5.31,1.6-10.51,2.35-15.37,2.46c-9.45,0.21-17.57-2-22.54-5.11
		c-7.52-4.71-11.89-17.23-11.89-17.23c1.25,2.66-4.92-7.88-3.41-43.76c0.21-5.07,28.6,13.94,30.57,17.71"/>
</g>
<text transform="matrix(1 0 0 1 60.5088 515.5986)" class="st5 st6 st7">CR</text>
<g>
	<path class="st3" d="M508.25,443.57c16.66-26.11,47.96-5.3,45.77-6.55"/>
	<g>
		<path class="st3" d="M505.79,499.73c0,0,8.09-29.18,24.41-45.55c18.02-18.06,42.02-21.09,41.3-20.73c0,0,0.73,39.96-0.48,47.04
			c-1.21,7.08-4.71,21.13-21.05,26.05c-5.55,1.67-10.99,2.46-16.07,2.57c-9.88,0.22-18.37-2.09-23.57-5.34
			c-7.87-4.93-12.43-18.02-12.43-18.02c1.31,2.78-5.14-8.24-3.56-45.75c0.22-5.3,29.9,14.57,31.96,18.52"/>
	</g>
</g>
</svg>
